<svg width="25" height="25" viewBox="0 0 25 25" fill="none" xmlns="http://www.w3.org/2000/svg">
<path d="M24.9756 7.35007C24.917 6.02168 24.7022 5.10852 24.3945 4.31715C24.077 3.47719 23.5886 2.72519 22.9489 2.10002C22.3236 1.46513 21.5667 0.971772 20.7364 0.659308C19.9406 0.351631 19.0321 0.136745 17.7037 0.0782379C16.3654 0.0146513 15.9406 0 12.5464 0C9.15217 0 8.72733 0.0146513 7.39401 0.0732565C6.06568 0.131862 5.15246 0.346845 4.36134 0.654327C3.52114 0.971772 2.76914 1.46015 2.14397 2.10002C1.50908 2.72514 1.01596 3.48213 0.703254 4.31237C0.395577 5.10852 0.18074 6.0168 0.122183 7.34509C0.0586455 8.68338 0.0439453 9.10822 0.0439453 12.5024C0.0439453 15.8967 0.0586455 16.3215 0.117202 17.6548C0.175807 18.9832 0.39079 19.8964 0.698517 20.6877C1.01596 21.5277 1.50908 22.2797 2.14397 22.9049C2.76914 23.5398 3.52612 24.0331 4.35636 24.3456C5.15241 24.6533 6.0607 24.8681 7.38928 24.9266C8.72235 24.9854 9.14743 24.9999 12.5417 24.9999C15.9359 24.9999 16.3607 24.9854 17.694 24.9266C19.0224 24.8681 19.9356 24.6533 20.7267 24.3456C21.5576 24.0243 22.3122 23.533 22.9422 22.9031C23.5721 22.2732 24.0635 21.5186 24.3848 20.6877C24.6923 19.8916 24.9073 18.9832 24.9659 17.6548C25.0245 16.3215 25.0391 15.8967 25.0391 12.5024C25.0391 9.10822 25.0341 8.68334 24.9756 7.35007ZM22.7243 17.5571C22.6705 18.7781 22.4654 19.4374 22.2945 19.8769C21.8744 20.966 21.01 21.8304 19.9209 22.2505C19.4813 22.4215 18.8173 22.6265 17.6011 22.6801C16.2825 22.7389 15.887 22.7534 12.5514 22.7534C9.21571 22.7534 8.81529 22.7389 7.50141 22.6801C6.28047 22.6265 5.62116 22.4215 5.18162 22.2505C4.63967 22.0502 4.14636 21.7328 3.74589 21.3176C3.33077 20.9123 3.01332 20.4239 2.81299 19.8819C2.64206 19.4424 2.43699 18.7781 2.38342 17.5621C2.32462 16.2435 2.31016 15.8478 2.31016 12.5122C2.31016 9.1765 2.32462 8.77608 2.38342 7.46244C2.43699 6.2415 2.64206 5.58219 2.81299 5.14265C3.01332 4.60046 3.33077 4.10725 3.75087 3.70668C4.15603 3.29156 4.6444 2.97412 5.1866 2.77403C5.62614 2.6031 6.29043 2.39798 7.50639 2.34421C8.82501 2.2856 9.22069 2.27095 12.5561 2.27095C15.8968 2.27095 16.2922 2.2856 17.6061 2.34421C18.827 2.39803 19.4863 2.60305 19.9259 2.77398C20.4678 2.97412 20.9612 3.29156 21.3616 3.70668C21.7767 4.11208 22.0942 4.60046 22.2945 5.14265C22.4654 5.58219 22.6705 6.24624 22.7243 7.46244C22.7829 8.78106 22.7975 9.1765 22.7975 12.5122C22.7975 15.8478 22.7829 16.2385 22.7243 17.5571Z" fill="#333F48"/>
<path d="M12.5462 6.0813C9.00066 6.0813 6.12402 8.95774 6.12402 12.5035C6.12402 16.0492 9.00066 18.9256 12.5462 18.9256C16.0918 18.9256 18.9683 16.0492 18.9683 12.5035C18.9683 8.95774 16.0918 6.0813 12.5462 6.0813ZM12.5462 16.6693C10.246 16.6693 8.38023 14.8038 8.38023 12.5035C8.38023 10.2031 10.246 8.3376 12.5461 8.3376C14.8465 8.3376 16.712 10.2031 16.712 12.5035C16.712 14.8038 14.8464 16.6693 12.5462 16.6693ZM20.7217 5.82734C20.7217 6.65534 20.0503 7.32666 19.2222 7.32666C18.3942 7.32666 17.7229 6.65534 17.7229 5.82734C17.7229 4.99925 18.3942 4.32812 19.2222 4.32812C20.0503 4.32812 20.7217 4.9992 20.7217 5.82734Z" fill="#333F48"/>
</svg>
