<svg width="20" height="22" viewBox="0 0 20 22" fill="none" xmlns="http://www.w3.org/2000/svg">
<path d="M15.5198 3.58713C14.6995 2.65067 14.2475 1.44804 14.2478 0.203125H10.5398V15.0831C10.5112 15.8884 10.1712 16.6511 9.59152 17.2107C9.01179 17.7702 8.23753 18.083 7.4318 18.0831C5.7278 18.0831 4.3118 16.6911 4.3118 14.9631C4.3118 12.8991 6.3038 11.3511 8.3558 11.9871V8.19513C4.2158 7.64313 0.591797 10.8591 0.591797 14.9631C0.591797 18.9591 3.9038 21.8031 7.4198 21.8031C11.1878 21.8031 14.2478 18.7431 14.2478 14.9631V7.41513C15.7514 8.49495 17.5566 9.0743 19.4078 9.07113V5.36313C19.4078 5.36313 17.1518 5.47113 15.5198 3.58713Z" fill="#333F48"/>
</svg>
