<svg width="23" height="25" viewBox="0 0 23 25" fill="none" xmlns="http://www.w3.org/2000/svg">
<path d="M21.6867 12.655C21.4284 11.5326 20.5103 10.7047 19.4052 10.5815C16.7891 10.2892 14.1398 10.2878 11.5036 10.2892C8.86618 10.2878 6.21749 10.2892 3.60051 10.5815C2.49604 10.705 1.5785 11.5329 1.32044 12.655C0.952653 14.2533 0.948242 15.9979 0.948242 17.6436C0.948242 19.2893 0.948242 21.0337 1.31603 22.6319C1.57409 23.754 2.49163 24.582 3.59665 24.7055C6.21308 24.998 8.86177 24.9991 11.4989 24.998C14.1363 24.9994 16.7844 24.998 19.4017 24.7055C20.5061 24.582 21.4242 23.754 21.6823 22.6319C22.0498 21.0337 22.0517 19.2893 22.0517 17.6436C22.0514 15.9977 22.0542 14.2533 21.6867 12.655ZM6.96768 13.8938H5.44029V22.0099H4.02151V13.8938H2.52196V12.5643H6.96768V13.8938ZM10.8212 22.0102H9.54496V21.2424C9.03794 21.8236 8.55657 22.107 8.08759 22.107C7.67652 22.107 7.39365 21.9405 7.266 21.584C7.19652 21.3711 7.15351 21.0342 7.15351 20.5374V14.972H8.42864V20.1539C8.42864 20.4528 8.42864 20.608 8.44022 20.6499C8.47082 20.8478 8.56759 20.9482 8.73853 20.9482C8.99438 20.9482 9.26182 20.7511 9.54469 20.351V14.972H10.8209L10.8212 22.0102ZM15.6661 19.8978C15.6661 20.5487 15.6223 21.0177 15.5371 21.316C15.3667 21.8396 15.0257 22.107 14.5184 22.107C14.0646 22.107 13.6268 21.855 13.2002 21.3284V22.0105H11.9251V12.5643H13.2002V15.6492C13.6121 15.1422 14.0494 14.8858 14.5184 14.8858C15.0257 14.8858 15.367 15.1529 15.5371 15.6798C15.6229 15.9629 15.6661 16.4283 15.6661 17.0947V19.8978ZM20.4791 18.7236H17.9286V19.9711C17.9286 20.6226 18.1417 20.9479 18.5801 20.9479C18.8941 20.9479 19.0769 20.7773 19.1497 20.4365C19.1615 20.3673 19.1783 20.0839 19.1783 19.5724H20.4794V19.7585C20.4794 20.1696 20.4637 20.4528 20.4521 20.5801C20.4123 20.8542 20.3105 21.1155 20.1543 21.3441C19.8011 21.8553 19.2779 22.1073 18.6118 22.1073C17.9446 22.1073 17.4367 21.8671 17.0681 21.3866C16.7976 21.0342 16.6587 20.4795 16.6587 19.7315V17.2665C16.6587 16.5141 16.7819 15.9638 17.0529 15.6081C17.4213 15.1264 17.9288 14.8866 18.5803 14.8866C19.2202 14.8866 19.7275 15.1264 20.0848 15.6081C20.352 15.9638 20.4797 16.5141 20.4797 17.2665V18.7236H20.4791Z" fill="#333F48"/>
<path d="M18.5687 16.0358C18.1424 16.0358 17.9288 16.3614 17.9288 17.012V17.6632H19.2039V17.012C19.2036 16.3614 18.9905 16.0358 18.5687 16.0358ZM13.8359 16.0358C13.6259 16.0358 13.413 16.135 13.1999 16.3459V20.6356C13.4127 20.849 13.6259 20.9499 13.8359 20.9499C14.2037 20.9499 14.3907 20.6356 14.3907 20.0001V16.996C14.3907 16.3614 14.2037 16.0358 13.8359 16.0358ZM14.5484 9.64219C15.0184 9.64219 15.5075 9.35656 16.0206 8.76876V9.54459H17.3095V2.43171H16.0206V7.86804C15.735 8.27167 15.4642 8.47128 15.2065 8.47128C15.0339 8.47128 14.9324 8.36927 14.9043 8.16938C14.8886 8.1272 14.8886 7.97032 14.8886 7.66843V2.43171H13.6038V8.05607C13.6038 8.5584 13.6468 8.89834 13.7179 9.11367C13.8475 9.47401 14.1334 9.64219 14.5484 9.64219ZM5.57558 5.67895V9.54459H7.00483V5.67895L8.72412 0H7.27888L6.30371 3.74819L5.28912 0H3.78516C4.0865 0.884734 4.39998 1.77388 4.70132 2.65944C5.15982 3.99054 5.446 4.9941 5.57558 5.67895ZM10.6397 9.64219C11.2854 9.64219 11.7872 9.3993 12.1431 8.91406C12.4136 8.55812 12.5432 7.99734 12.5432 7.24136V4.75065C12.5432 3.99026 12.4139 3.43444 12.1431 3.0752C11.7872 2.58858 11.2857 2.34569 10.6397 2.34569C9.99732 2.34569 9.49581 2.58858 9.13905 3.0752C8.86528 3.43444 8.73569 3.99026 8.73569 4.75065V7.24136C8.73569 7.99734 8.86528 8.55812 9.13905 8.91406C9.49553 9.3993 9.99732 9.64219 10.6397 9.64219ZM10.0246 4.49232C10.0246 3.83421 10.2242 3.50613 10.6397 3.50613C11.0552 3.50613 11.2543 3.83394 11.2543 4.49232V7.48426C11.2543 8.14236 11.0552 8.47155 10.6397 8.47155C10.2242 8.47155 10.0246 8.14236 10.0246 7.48426V4.49232Z" fill="#333F48"/>
</svg>
